<svg width="35" height="14" viewBox="0 0 35 14" fill="none" xmlns="http://www.w3.org/2000/svg">
<path d="M11.1073 2.18066L8.51435 8.74814L7.45165 3.15834C7.36663 2.59511 6.87779 2.18066 6.30393 2.18066H2.05313L2 2.45696C2.88204 2.64825 3.87035 2.95643 4.46546 3.27524C4.83741 3.48778 4.94368 3.64718 5.06057 4.1254L7.04782 11.83H9.69394L13.7535 2.18066H11.1073ZM14.8055 2.18066L12.7439 11.8406H15.2412L17.3135 2.18066H14.8055ZM20.5866 4.85866C20.5972 4.50797 20.916 4.13603 21.6493 4.05101C22.4995 3.96599 23.3496 4.1254 24.1148 4.48672L24.5611 2.43571C23.796 2.15941 22.9989 2 22.2019 2C19.7365 2 18.0043 3.31775 17.9936 5.19873C17.983 6.59086 19.237 7.356 20.1828 7.83422C21.1605 8.31243 21.4899 8.60999 21.4793 9.03507C21.4686 9.67269 20.7035 9.97024 19.9915 9.98087C18.7375 10.0128 18.0042 9.65143 17.4304 9.3645L16.9734 11.4793C17.5579 11.745 18.6312 11.9787 19.7471 12C22.3719 12 24.0935 10.7035 24.0935 8.695C24.0935 6.1339 20.5654 5.99575 20.5866 4.85866ZM30.9054 2.18066H28.7694C28.3018 2.18066 27.8767 2.45696 27.7067 2.89267L23.9554 11.8406H26.5802L27.1116 10.406H30.3209L30.6185 11.8406H32.9352L30.9054 2.18066ZM27.8236 8.40807L29.1413 4.78427L29.8959 8.40807H27.8236Z" fill="#034EA1"/>
</svg>
