<svg width="161" height="26" viewBox="0 0 161 26" fill="none" xmlns="http://www.w3.org/2000/svg">
<mask id="mask0_310_269" style="mask-type:luminance" maskUnits="userSpaceOnUse" x="0" y="0" width="161" height="26">
<path fill-rule="evenodd" clip-rule="evenodd" d="M0 0H160.48V25.9998H0V0Z" fill="white"/>
</mask>
<g mask="url(#mask0_310_269)">
<path fill-rule="evenodd" clip-rule="evenodd" d="M158.159 2.61126C158.898 2.68536 159.512 2.77636 159.512 3.16376C159.512 3.64086 158.747 3.79946 158.219 3.79946C157.793 3.79946 157.296 3.60446 156.595 3.26776L156.294 3.95416C157.026 4.36496 157.533 4.53526 158.303 4.53526C159.159 4.53526 160.48 4.25446 160.48 3.16376C160.48 2.04706 159.293 1.89886 158.43 1.82606C158.121 1.79746 157.18 1.78316 157.18 1.34896C157.18 1.09026 157.471 0.796457 158.341 0.796457C158.888 0.796457 159.52 0.948557 160.06 1.23716L160.339 0.611857C159.713 0.243957 159.063 0.0658568 158.341 0.0658568C157.539 0.0658568 156.233 0.305057 156.233 1.38536C156.233 2.37856 157.265 2.51766 158.159 2.61126V2.61126ZM156.12 8.93966C153.785 8.54316 151.649 9.01896 149.694 10.2592C149.492 10.3879 149.286 10.5088 148.975 10.6973C147.451 11.1653 145.778 9.58446 144.167 9.06576C143.971 9.01896 143.881 9.06446 143.841 9.11776C143.779 9.20226 143.837 9.37906 143.869 9.50516C143.872 9.51036 143.873 9.51686 143.875 9.52336C144.123 10.4633 144.274 11.424 144.331 12.3899V25.6525H148.988C148.988 25.6525 149.063 16.9854 148.961 13.608L148.971 12.6122C149.091 11.7061 149.638 11.1913 150.514 10.7857C152.466 9.88216 155.554 10.0473 155.7 13.3298C155.85 16.7046 155.7 25.6525 155.7 25.6525H160.338C160.338 25.6525 160.472 16.0039 160.338 13.3558C160.213 10.8507 158.706 9.37906 156.12 8.93966V8.93966ZM151.197 4.47416H152.149V0.176357H151.197V4.47416ZM143.656 0.893957H145.205C145.759 0.893957 146.002 1.13186 146.002 1.44646C146.002 1.76496 145.679 2.03406 145.133 2.03406L143.656 2.02106V0.893957ZM145.872 4.47546H146.851V4.40136L145.571 2.75686L145.496 2.73346C146.261 2.64766 146.907 2.11986 146.907 1.43346C146.907 0.691157 146.184 0.176357 145.169 0.176357H142.673V4.47546H143.643L143.656 2.77116H144.483C144.888 3.22486 145.872 4.47546 145.872 4.47546V4.47546ZM135.794 2.82056L136.547 1.21376H136.555L137.289 2.82056H135.794ZM136.194 0.164657L134.097 4.47546H135.034L135.485 3.51736L137.593 3.51086L138.035 4.47546H139.001L136.995 0.164657H136.194ZM128.062 0.966757H129.349C129.902 0.956357 130.228 1.34116 130.228 1.71426C130.228 2.14456 129.78 2.46436 129.228 2.46436H128.062V0.966757ZM128.062 3.18716H129.367C130.387 3.18716 131.207 2.63466 131.207 1.70386C131.207 0.735357 130.356 0.176357 129.336 0.176357H127.075V4.47546H128.062V3.18716ZM29.7321 1.79356C28.4299 1.79356 27.415 2.80236 27.4266 4.08546C27.4369 5.30876 28.4853 6.29676 29.7566 6.27726C31.1064 6.25776 32.1703 5.27886 32.1651 4.06076C32.1613 2.77636 31.1064 1.79356 29.7321 1.79356V1.79356ZM74.6562 10.3203C76.1477 9.24386 78.1016 9.68846 78.7456 11.3304C79.1475 12.347 79.2467 13.4715 79.5017 14.6298H72.3932C72.7294 12.9463 73.1776 11.3863 74.6562 10.3203V10.3203ZM83.9595 15.7764C83.9079 13.9967 83.6117 12.3613 82.3482 11.0418C80.183 8.77716 77.2657 8.30916 74.3226 8.92796C70.3749 9.75736 67.8929 13.0269 67.6508 16.9828C67.4202 20.8126 69.6562 24.1926 73.4404 25.4341C77.3533 26.7185 80.9301 25.8527 83.4816 22.4597C83.6246 22.2673 83.7547 22.0281 83.8191 21.7824C83.7276 21.7577 83.4971 21.6836 83.403 21.6589C83.1635 21.8448 82.9304 22.0346 82.6843 22.214C79.1217 24.7997 74.901 23.93 73.13 20.2159C72.4718 18.834 72.2142 17.3637 72.3172 15.7764H83.9595ZM59.3033 0.176357L59.2994 25.6525H63.9542L63.953 0.176357H59.3033ZM22.6236 18.388C21.9487 20.0273 20.8823 21.4209 19.5917 22.6715C17.3132 24.8841 13.9438 25.4795 11.1166 24.1496C8.61664 22.9757 7.16893 20.9633 6.36135 18.5453C5.25625 15.2511 5.16351 11.8893 6.07928 8.54184C6.85079 5.71044 8.36934 3.31844 11.2326 1.92094C14.2194 0.461041 18.22 0.792541 20.4186 3.86444C21.1849 4.93694 21.6499 6.19924 22.2707 7.36664C22.3892 7.59024 22.5927 7.77094 22.7576 7.97114C22.8259 7.93214 22.8928 7.89314 22.9637 7.85414V0.797741C22.8787 0.761341 22.813 0.708041 22.7396 0.701541C19.5814 0.360941 16.4438 -0.130459 13.2315 0.0320409C6.1308 0.393441 0.909245 4.92004 0.0900775 11.5266C-0.658251 17.5573 3.32167 23.3891 9.46929 25.2455C13.9515 26.5975 18.3153 25.9293 22.6236 24.5162C22.7988 24.459 22.9972 24.186 23.0087 24.004C23.1298 22.1814 23.2187 20.3588 23.2908 18.5362C23.2985 18.3672 23.1363 18.193 23.0525 18.0214C22.9057 18.1423 22.6867 18.2372 22.6236 18.388V18.388ZM128.652 9.01506L126.407 9.00856L119.841 15.5801V0.176357H115.221L115.174 25.6525H119.757L119.841 16.7163L119.994 16.6942L126.31 25.6525H131.494L123.322 14.2632L128.652 9.01506ZM49.2569 22.5572C48.4686 24.7542 46.2649 25.2599 44.2581 24.6801C43.0848 24.3421 42.6275 23.3892 42.5863 22.3531C42.5129 20.3381 42.4305 13.0867 42.4034 11.4825C42.3957 11.0548 42.5567 10.8234 42.9367 10.6219C45.7175 9.13596 48.6695 10.1448 49.5106 13.0698C50.4148 16.2223 50.3787 19.4294 49.2569 22.5572V22.5572ZM50.9519 9.82106C48.1608 8.44826 45.3491 8.46386 42.3905 9.88086V0.176357H37.7705L37.7267 20.7567C37.7241 22.0164 37.5618 23.2696 37.2411 24.4851C37.2398 24.4903 37.2373 24.4981 37.236 24.5033C37.2038 24.6294 37.1458 24.8062 37.2089 24.8907C37.2476 24.944 37.339 24.9869 37.5348 24.944C39.2156 24.4019 40.8076 24.775 42.3957 25.2924C43.9323 25.7903 45.559 25.9801 47.1561 25.7513C52.4885 24.9869 55.8617 20.7619 55.1392 15.7868C54.7644 13.1985 53.5073 11.0808 50.9519 9.82106V9.82106ZM27.4716 9.01506L27.4678 25.6525H32.1226V9.01506H27.4716ZM134.072 9.01506L134.069 25.6525H138.724L138.721 9.01506H134.072ZM104.063 10.8078L101.269 9.86916C97.8454 8.68226 96.8459 7.08586 96.8459 5.17876C96.8459 3.08446 98.6427 1.67786 101.899 1.67786C105.691 1.67786 108.019 4.11666 109.248 8.21166H109.681V1.89756C107.62 0.896557 104.86 0.238757 101.934 0.238757C97.0108 0.238757 93.1236 2.55406 93.1236 6.64906C93.1236 9.74306 94.8508 12.3392 99.5391 13.9031L102.066 14.7468C105.427 15.8726 107.42 17.248 107.42 19.8441C107.42 22.8133 105.192 24.2212 101.368 24.2212C97.0108 24.2212 94.6511 21.5328 93.3219 16.8411H92.9227V23.7844C95.2501 25.0337 98.4417 25.6902 101.568 25.6902C107.12 25.6902 111.443 23.1253 111.443 18.3114C111.443 13.621 107.454 11.9635 104.063 10.8078V10.8078Z" fill="#6C1401"/>
</g>
</svg>
