<svg width="15" height="15" viewBox="0 0 15 15" fill="none" xmlns="http://www.w3.org/2000/svg">
<path fill-rule="evenodd" clip-rule="evenodd" d="M11.2193 4.33976C10.7443 4.33976 10.3593 3.95476 10.3593 3.47976C10.3593 3.00476 10.7443 2.61976 11.2193 2.61976C11.6943 2.61976 12.0793 3.00476 12.0793 3.47976C12.0793 3.95476 11.6943 4.33976 11.2193 4.33976ZM7.39531 10.9478C5.40331 10.9478 3.78231 9.32776 3.78231 7.33576C3.78231 5.34276 5.40331 3.72276 7.39531 3.72276C9.38731 3.72276 11.0083 5.34276 11.0083 7.33576C11.0083 9.32776 9.38731 10.9478 7.39531 10.9478ZM10.2633 -0.000244141H4.40731C1.97631 -0.000244141 0.000305176 1.97676 0.000305176 4.40676V10.2638C0.000305176 12.6938 1.97631 14.6708 4.40731 14.6708H10.2633C12.6933 14.6708 14.6703 12.6938 14.6703 10.2638V4.40676C14.6703 1.97676 12.6933 -0.000244141 10.2633 -0.000244141Z" fill="#6B180B"/>
<path fill-rule="evenodd" clip-rule="evenodd" d="M7.3956 5.021C6.1196 5.021 5.0816 6.059 5.0816 7.335C5.0816 8.612 6.1196 9.65 7.3956 9.65C8.6716 9.65 9.7096 8.612 9.7096 7.335C9.7096 6.059 8.6716 5.021 7.3956 5.021Z" fill="#6B180B"/>
</svg>
