<svg viewBox="0 0 13 18" version="1.1" xmlns="http://www.w3.org/2000/svg" xmlns:xlink="http://www.w3.org/1999/xlink">
    <defs>
        <polygon id="path-1" points="0 0.2548 13.1480462 0.2548 13.1480462 7.53846154 0 7.53846154"></polygon>
        <polygon id="path-3" points="0.580353846 0.0646153846 8.11881538 0.0646153846 8.11881538 7.60286154 0.580353846 7.60286154"></polygon>
    </defs>
    <g stroke="none" stroke-width="1" fill="none" fill-rule="evenodd">
        <g transform="translate(0.000000, -0.700000)">
            <g transform="translate(0.000000, 10.704400)">
                <mask id="mask-2" fill="white">
                    <use xlink:href="#path-1"></use>
                </mask>
                <g id="Clip-2"></g>
                <path d="M13.1480462,4.15649231 L13.1437385,4.14895385 C11.8783538,1.83464615 9.43481538,0.2548 6.61112308,0.2548 C3.78635385,0.2548 1.34281538,1.83464615 0.0785076923,4.14895385 L-0.000107692308,4.33849231 C1.47096923,6.2748 3.83481538,7.53910769 6.50343077,7.53910769 C9.25604615,7.53910769 11.6898923,6.19726154 13.1480462,4.15649231" id="Fill-1" fill="currentColor" mask="url(#mask-2)"></path>
            </g>
            <g transform="translate(2.153846, 1.012092)">
                <mask id="mask-4" fill="white">
                    <use xlink:href="#path-3"></use>
                </mask>
                <g id="Clip-4"></g>
                <path d="M8.11881538,3.83363077 C8.11881538,1.75193846 6.43127692,0.0644 4.34958462,0.0644 C2.26789231,0.0644 0.580353846,1.75193846 0.580353846,3.83363077 C0.580353846,5.9164 2.26789231,7.60286154 4.34958462,7.60286154 C6.43127692,7.60286154 8.11881538,5.9164 8.11881538,3.83363077" id="Fill-3" fill="currentColor" mask="url(#mask-4)"></path>
            </g>
        </g>
    </g>
</svg>
