<svg viewBox="0 0 14 13" version="1.1" xmlns="http://www.w3.org/2000/svg" xmlns:xlink="http://www.w3.org/1999/xlink">
    <g id="wishlist" stroke="none" stroke-width="1" fill="none" fill-rule="evenodd">
        <path d="M10.167,0.5 C11.0490857,0.5 11.9384257,0.849624907 12.575,1.53602247 C13.140681,2.14597793 13.5,3.01867257 13.5,4.133 C13.5,7.47120643 8.34389031,11.0776948 7.24566391,11.8115566 C6.45183146,11.4866811 4.13138188,9.92428968 2.42420075,8.00685767 C1.35362054,6.8044283 0.5,5.44978714 0.5,4.133 C0.5,3.01867257 0.859319027,2.14597793 1.42499996,1.53602247 C2.06157432,0.849624907 2.95091427,0.5 3.833,0.5 C4.90445927,0.5 5.90440514,1.00540765 6.61389872,1.86768822 C6.76056955,2.04594409 6.88988409,2.23344298 7.00102049,2.42787866 C7.11155045,2.232968 7.24037719,2.04531292 7.38655652,1.86713413 C8.09242219,1.00675061 9.09405058,0.5 10.167,0.5 Z" stroke="currentColor"></path>
    </g>
</svg>
