<svg viewBox="0 0 20 20" fill="none" xmlns="http://www.w3.org/2000/svg">
<g>
<path d="M13.597 13.7576C12.0851 15.2612 10.5417 16.4003 9.99998 16.7856C9.45823 16.4003 7.91489 15.2614 6.40295 13.7581C5.50024 12.8605 4.6339 11.8575 3.99873 10.8306C3.35791 9.7946 3 8.81088 3 7.93159C3 5.24083 4.76267 4 6.38057 4C7.43358 4 8.45961 4.51047 9.21459 5.46846L10.0011 6.46654L10.7863 5.46735C11.5362 4.51299 12.5639 4 13.6194 4C15.2373 4 17 5.24083 17 7.93159C17 8.81054 16.6421 9.79409 16.0013 10.8301C15.3661 11.857 14.4997 12.86 13.597 13.7576Z" stroke="currentColor" stroke-width="2"/>
</g>
</svg>
