<svg viewBox="0 0 125 20" version="1.1" xmlns="http://www.w3.org/2000/svg" xmlns:xlink="http://www.w3.org/1999/xlink">
    <defs>
        <polygon id="path-1" points="0 5.31556236e-05 124.5959 5.31556236e-05 124.5959 19.9998909 0 19.9998909"></polygon>
    </defs>
    <g stroke="none" stroke-width="1" fill="none" fill-rule="evenodd">
        <g>
            <mask id="mask-2" fill="white">
                <use xlink:href="#path-1"></use>
            </mask>
            <g id="Clip-2"></g>
            <path d="M122.7939,2.0087 C123.3679,2.0657 123.8449,2.1357 123.8449,2.4337 C123.8449,2.8007 123.2509,2.9227 122.8409,2.9227 C122.5099,2.9227 122.1239,2.7727 121.5799,2.5137 L121.3459,3.0417 C121.9149,3.3577 122.3079,3.4887 122.9059,3.4887 C123.5709,3.4887 124.5959,3.2727 124.5959,2.4337 C124.5959,1.5747 123.6749,1.4607 123.0049,1.4047 C122.7649,1.3827 122.0339,1.3717 122.0339,1.0377 C122.0339,0.8387 122.2599,0.6127 122.9359,0.6127 C123.3599,0.6127 123.8509,0.7297 124.2699,0.9517 L124.4869,0.4707 C124.0009,0.1877 123.4959,0.0507 122.9359,0.0507 C122.3129,0.0507 121.2989,0.2347 121.2989,1.0657 C121.2989,1.8297 122.0999,1.9367 122.7939,2.0087 L122.7939,2.0087 Z M121.2109,6.8767 C119.3979,6.5717 117.7399,6.9377 116.2219,7.8917 C116.0649,7.9907 115.9049,8.0837 115.6639,8.2287 C114.4809,8.5887 113.1819,7.3727 111.9309,6.9737 C111.7789,6.9377 111.7089,6.9727 111.6779,7.0137 C111.6299,7.0787 111.6749,7.2147 111.6999,7.3117 C111.7019,7.3157 111.7029,7.3207 111.7039,7.3257 C111.8969,8.0487 112.0139,8.7877 112.0579,9.5307 L112.0579,19.7327 L115.6739,19.7327 C115.6739,19.7327 115.7319,13.0657 115.6529,10.4677 L115.6609,9.7017 C115.7539,9.0047 116.1789,8.6087 116.8589,8.2967 C118.3739,7.6017 120.7719,7.7287 120.8849,10.2537 C121.0019,12.8497 120.8849,19.7327 120.8849,19.7327 L124.4859,19.7327 C124.4859,19.7327 124.5899,12.3107 124.4859,10.2737 C124.3889,8.3467 123.2189,7.2147 121.2109,6.8767 L121.2109,6.8767 Z M117.3889,3.4417 L118.1279,3.4417 L118.1279,0.1357 L117.3889,0.1357 L117.3889,3.4417 Z M111.5339,0.6877 L112.7369,0.6877 C113.1669,0.6877 113.3559,0.8707 113.3559,1.1127 C113.3559,1.3577 113.1049,1.5647 112.6809,1.5647 L111.5339,1.5547 L111.5339,0.6877 Z M113.2549,3.4427 L114.0149,3.4427 L114.0149,3.3857 L113.0209,2.1207 L112.9629,2.1027 C113.5569,2.0367 114.0579,1.6307 114.0579,1.1027 C114.0579,0.5317 113.4969,0.1357 112.7089,0.1357 L110.7709,0.1357 L110.7709,3.4427 L111.5239,3.4427 L111.5339,2.1317 L112.1759,2.1317 C112.4909,2.4807 113.2549,3.4427 113.2549,3.4427 L113.2549,3.4427 Z M105.4299,2.1697 L106.0149,0.9337 L106.0209,0.9337 L106.5909,2.1697 L105.4299,2.1697 Z M105.7409,0.1267 L104.1129,3.4427 L104.8399,3.4427 L105.1899,2.7057 L106.8269,2.7007 L107.1699,3.4427 L107.9199,3.4427 L106.3629,0.1267 L105.7409,0.1267 Z M99.4269,0.7437 L100.4259,0.7437 C100.8559,0.7357 101.1089,1.0317 101.1089,1.3187 C101.1089,1.6497 100.7609,1.8957 100.3319,1.8957 L99.4269,1.8957 L99.4269,0.7437 Z M99.4269,2.4517 L100.4399,2.4517 C101.2319,2.4517 101.8689,2.0267 101.8689,1.3107 C101.8689,0.5657 101.2079,0.1357 100.4159,0.1357 L98.6609,0.1357 L98.6609,3.4427 L99.4269,3.4427 L99.4269,2.4517 Z M23.0839,1.3797 C22.0729,1.3797 21.2849,2.1557 21.2939,3.1427 C21.3019,4.0837 22.1159,4.8437 23.1029,4.8287 C24.1509,4.8137 24.9769,4.0607 24.9729145,3.1237 C24.9699,2.1357 24.1509,1.3797 23.0839,1.3797 L23.0839,1.3797 Z M57.9629,7.9387 C59.1209,7.1107 60.6379,7.4527 61.1379,8.7157 C61.4499,9.4977 61.5269,10.3627 61.7249,11.2537 L56.2059,11.2537 C56.4669,9.9587 56.8149,8.7587 57.9629,7.9387 L57.9629,7.9387 Z M65.1859,12.1357 C65.1459,10.7667 64.9159,9.5087 63.9349,8.4937 C62.2539,6.7517 59.9889,6.3917 57.7039,6.8677 C54.6389,7.5057 52.7119,10.0207 52.5239,13.0637 C52.3449,16.0097 54.0809,18.6097 57.0189,19.5647 C60.0569,20.5527 62.8339,19.8867 64.8149,17.2767 C64.9259,17.1287 65.0269,16.9447 65.0769,16.7557 C65.0059,16.7367 64.8269,16.6797 64.7539,16.6607 C64.5679,16.8037 64.3869,16.9497 64.1959,17.0877 C61.4299,19.0767 58.1529,18.4077 56.7779,15.5507 C56.2669,14.4877 56.0669,13.3567 56.1469,12.1357 L65.1859,12.1357 Z M46.0429,0.1357 L46.0399,19.7327 L49.6539,19.7327 L49.6529,0.1357 L46.0429,0.1357 Z M17.5649,14.1447 C17.0409,15.4057 16.2129,16.4777 15.2109,17.4397 C13.4419,19.1417 10.8259,19.5997 8.6309,18.5767 C6.6899,17.6737 5.5659,16.1257 4.9389,14.2657 C4.0809,11.7317 4.0089,9.1457 4.7199,6.5707 C5.3189,4.3927 6.4979,2.5527 8.7209,1.4777 C11.0399,0.3547 14.1459,0.6097 15.8529,2.9727 C16.4479,3.7977 16.8089,4.7687 17.2909,5.6667 C17.3829,5.8387 17.5409,5.9777 17.6689,6.1317 C17.7219,6.1017 17.7739,6.0717 17.8289,6.0417 L17.8289,0.6137 C17.7629,0.5857 17.7119,0.5447 17.6549,0.5397 C15.2029,0.2777 12.7669,-0.1003 10.2729,0.0247 C4.7599,0.3027 0.7059,3.7847 0.0699,8.8667 C-0.5111,13.5057 2.5789,17.9917 7.3519,19.4197 C10.8319,20.4597 14.2199,19.9457 17.5649,18.8587 C17.7009,18.8147 17.8549,18.6047 17.8639,18.4647 C17.9579,17.0627 18.0269,15.6607 18.0829,14.2587 C18.0889,14.1287 17.9629,13.9947 17.8979,13.8627 C17.7839,13.9557 17.6139,14.0287 17.5649,14.1447 L17.5649,14.1447 Z M99.8849,6.9347 L98.1419,6.9297 L93.0439,11.9847 L93.0439,0.1357 L89.4569,0.1357 L89.4209,19.7327 L92.9789,19.7327 L93.0439,12.8587 L93.1629,12.8417 L98.0669,19.7327 L102.0919,19.7327 L95.7469,10.9717 L99.8849,6.9347 Z M38.2429,17.3517 C37.6309,19.0417 35.9199,19.4307 34.3619,18.9847 C33.4509,18.7247 33.0959,17.9917 33.0639,17.1947 C33.0069,15.6447 32.9429,10.0667 32.9219,8.8327 C32.9159,8.5037 33.0409,8.3257 33.3359,8.1707 C35.4949,7.0277 37.7869,7.8037 38.4399,10.0537 C39.1419,12.4787 39.1139,14.9457 38.2429,17.3517 L38.2429,17.3517 Z M39.5589,7.5547 C37.3919,6.4987 35.2089,6.5107 32.9119,7.6007 L32.9119,0.1357 L29.3249,0.1357 L29.2909,15.9667 C29.2889,16.9357 29.1629,17.8997 28.9139,18.8347 C28.9129,18.8387 28.9109,18.8447 28.9099,18.8487 C28.8849,18.9457 28.8399,19.0817 28.8889,19.1467 C28.9189,19.1877 28.9899,19.2207 29.1419,19.1877 C30.4469,18.7707 31.6829,19.0577 32.9159,19.4557 C34.1089,19.8387 35.3719,19.9847 36.6119,19.8087 C40.7519,19.2207 43.3709,15.9707 42.8099,12.1437 C42.5189,10.1527 41.5429,8.5237 39.5589,7.5547 L39.5589,7.5547 Z M21.3289,6.9347 L21.3259,19.7327 L24.9399,19.7327 L24.9399,6.9347 L21.3289,6.9347 Z M104.0929,6.9347 L104.0909,19.7327 L107.7049,19.7327 L107.7029,6.9347 L104.0929,6.9347 Z M80.7939,8.3137 L78.6249,7.5917 C75.9669,6.6787 75.1909,5.4507 75.1909,3.9837 C75.1909,2.3727 76.5859,1.2907 79.1139,1.2907 C82.0579,1.2907 83.8659,3.1667 84.8199,6.3167 L85.1559,6.3167 L85.1559,1.4597 C83.5559,0.6897 81.4129,0.1837 79.1409,0.1837 C75.3189,0.1837 72.3009,1.9647 72.3009,5.1147 C72.3009,7.4947 73.6419,9.4917 77.2819,10.6947 L79.2439,11.3437 C81.8529,12.2097 83.4009,13.2677 83.4009,15.2647 C83.4009,17.5487 81.6709,18.6317 78.7019,18.6317 C75.3189,18.6317 73.4869,16.5637 72.4549,12.9547 L72.1449,12.9547 L72.1449,18.2957 C73.9519,19.2567 76.4299,19.7617 78.8569,19.7617 C83.1679,19.7617 86.5239,17.7887 86.5239,14.0857 C86.5239,10.4777 83.4269,9.2027 80.7939,8.3137 L80.7939,8.3137 Z" id="Fill-1" fill="currentColor" mask="url(#mask-2)"></path>
        </g>
    </g>
</svg>